Coordinates
version=1
nRows=19
nColumns=27
inDegrees=yes

Units are S.I. units (second, meters, Newtons, ...)
If the header above contains a line with 'inDegrees', this indicates whether rotational values are in degrees (yes) or radians (no).

endheader
time	pelvis_rotation	pelvis_tilt	pelvis_list	pelvis_tx	pelvis_ty	pelvis_tz	hip_flexion_r	hip_adduction_r	hip_rotation_r	knee_angle_r	knee_rotation_r	knee_adduction_r	knee_angle_r_beta	ankle_angle_r	subtalar_angle_r	mtp_angle_r	hip_flexion_l	hip_adduction_l	hip_rotation_l	knee_angle_l	knee_rotation_l	knee_adduction_l	knee_angle_l_beta	ankle_angle_l	subtalar_angle_l	mtp_angle_l
      8.40000000	      6.31121888	    -41.81037125	      7.00409251	     -0.10410845	      0.85804333	     -1.18833886	     78.56207490	    -15.71849955	    -12.52899075	     43.19513500	      0.00000000	      9.04826800	      0.75389733	      3.82098605	      0.00000000	      0.00000000	     74.59741881	     -4.67334554	    -13.85999782	     34.81155454	      0.00000000	     -9.19424708	      0.60757624	     -0.68443275	      0.00000000	      0.00000000
      8.40500000	      6.62561592	    -41.94190981	      7.15865447	     -0.10375906	      0.85883744	     -1.18900305	     78.51222738	    -16.02788807	    -12.87349698	     42.98177054	      0.00000000	      9.10402153	      0.75017341	      3.75218580	      0.00000000	      0.00000000	     74.58222749	     -4.36523118	    -13.68400380	     34.50380384	      0.00000000	     -9.12206819	      0.60220498	     -0.79656089	      0.00000000	      0.00000000
      8.41000000	      6.49081198	    -42.54651904	      7.19381811	     -0.10461572	      0.85918180	     -1.18937748	     79.14933119	    -15.76606616	    -12.35331112	     42.77130255	      0.00000000	      8.55650072	      0.74650005	      3.50514736	      0.00000000	      0.00000000	     75.17751460	     -4.39746198	    -13.51064692	     34.42479224	      0.00000000	     -8.55495496	      0.60082597	     -0.96462476	      0.00000000	      0.00000000
      8.41500000	      6.18697183	    -41.75919190	      7.28937518	     -0.10263126	      0.86081316	     -1.18990013	     77.96124593	    -15.87916889	    -12.74348281	     42.27121393	      0.00000000	      9.15104038	      0.73777186	      3.43450467	      0.00000000	      0.00000000	     73.75296184	     -4.43945085	    -14.41013902	     33.76042407	      0.00000000	     -9.12413262	      0.58923056	     -0.99262048	      0.00000000	      0.00000000
      8.42000000	      5.74970339	    -41.78538055	      6.73423035	     -0.10237781	      0.86177178	     -1.18974914	     77.56324438	    -15.30928387	    -12.70463265	     41.69037494	      0.00000000	      8.63174699	      0.72763431	      3.19426014	      0.00000000	      0.00000000	     73.64119693	     -4.81782174	    -14.13989707	     33.59295267	      0.00000000	     -8.65660411	      0.58630763	     -1.16245717	      0.00000000	      0.00000000
      8.42500000	      5.60364814	    -41.71903146	      7.63614033	     -0.10184720	      0.86250149	     -1.19082142	     77.76461586	    -15.66721487	    -12.15669143	     41.69318229	      0.00000000	      9.17499259	      0.72768331	      3.16323650	      0.00000000	      0.00000000	     73.06239119	     -4.54830938	    -15.48995857	     33.08719045	      0.00000000	     -9.12470471	      0.57748041	     -1.16850846	      0.00000000	      0.00000000
      8.43000000	      5.39946754	    -42.27933774	      7.02859106	     -0.10239530	      0.86301217	     -1.19062996	     78.00188154	    -15.16263638	    -12.26426601	     41.27522155	      0.00000000	      8.63015265	      0.72038852	      2.89978780	      0.00000000	      0.00000000	     73.74506490	     -4.86917153	    -14.77518718	     33.16491243	      0.00000000	     -8.58009342	      0.57883692	     -1.28250323	      0.00000000	      0.00000000
      8.43500000	      5.23723467	    -41.56628345	      7.52980393	     -0.10059617	      0.86436631	     -1.19140009	     77.12542918	    -15.48370319	    -12.30822293	     40.97132403	      0.00000000	      9.21106955	      0.71508450	      2.90870242	      0.00000000	      0.00000000	     72.36666309	     -4.66463698	    -15.89714686	     32.44826692	      0.00000000	     -9.11729059	      0.56632909	     -1.35587578	      0.00000000	      0.00000000
      8.44000000	      5.04425139	    -41.55973196	      7.69845116	     -0.10017234	      0.86512935	     -1.19185186	     77.03354261	    -15.44450260	    -12.09753872	     40.71606979	      0.00000000	      9.22412133	      0.71062948	      2.78497149	      0.00000000	      0.00000000	     72.07384392	     -4.65160148	    -16.31433983	     32.13840827	      0.00000000	     -9.10216876	      0.56092104	     -1.42428586	      0.00000000	      0.00000000
      8.44500000	      5.31258382	    -42.03757352	      7.34712242	     -0.10048452	      0.86564880	     -1.19192653	     77.19744128	    -15.35550416	    -12.44589955	     40.39079231	      0.00000000	      8.70928794	      0.70495231	      2.62191527	      0.00000000	      0.00000000	     72.66515680	     -4.57610927	    -15.31793597	     32.05428335	      0.00000000	     -8.46086020	      0.55945278	     -1.58822821	      0.00000000	      0.00000000
      8.45000000	      5.33109873	    -41.52548921	      7.89926089	     -0.09903643	      0.86666868	     -1.19276012	     76.62445764	    -15.79229113	    -12.53696428	     40.24342817	      0.00000000	      9.28646904	      0.70238032	      2.65714086	      0.00000000	      0.00000000	     71.63396915	     -4.25575894	    -16.22457018	     31.48010684	      0.00000000	     -8.99701775	      0.54943151	     -1.62310242	      0.00000000	      0.00000000
      8.45500000	      4.98777368	    -41.61999486	      7.45307092	     -0.09890807	      0.86738969	     -1.19260781	     76.38565878	    -15.30513294	    -12.41580628	     39.77407947	      0.00000000	      8.78679736	      0.69418864	      2.43152416	      0.00000000	      0.00000000	     71.62032314	     -4.54336144	    -15.88701999	     31.33937524	      0.00000000	     -8.48057132	      0.54697528	     -1.76448047	      0.00000000	      0.00000000
      8.46000000	      5.07490905	    -41.51574545	      7.51093532	     -0.09782832	      0.86817633	     -1.19292711	     76.04747697	    -15.55786141	    -13.05288120	     39.57495036	      0.00000000	      9.31164855	      0.69071319	      2.45433566	      0.00000000	      0.00000000	     71.29769641	     -4.47804840	    -16.23123094	     31.11751931	      0.00000000	     -8.97110814	      0.54310317	     -1.68675332	      0.00000000	      0.00000000
      8.46500000	      4.56826770	    -41.34600816	      7.98466232	     -0.09733486	      0.86885314	     -1.19344806	     76.02024393	    -15.42558488	    -12.15445185	     39.42572907	      0.00000000	      9.30257874	      0.68810878	      2.33365071	      0.00000000	      0.00000000	     70.64808017	     -4.48226947	    -17.27046787	     30.67486764	      0.00000000	     -8.99133993	      0.53537744	     -1.78475822	      0.00000000	      0.00000000
      8.47000000	      4.36465761	    -41.78826317	      8.19001135	     -0.09798280	      0.86903247	     -1.19374310	     76.60586609	    -15.18978015	    -11.33179084	     39.33532367	      0.00000000	      8.78722613	      0.68653091	      2.14242435	      0.00000000	      0.00000000	     70.99637673	     -4.46941971	    -17.28976634	     30.54444095	      0.00000000	     -8.40386046	      0.53310106	     -1.92108575	      0.00000000	      0.00000000
      8.47500000	      4.52196952	    -41.45656667	      8.15003387	     -0.09647571	      0.86995716	     -1.19395053	     75.92308791	    -15.48697927	    -12.17286558	     39.07821962	      0.00000000	      9.32606125	      0.68204360	      2.19939379	      0.00000000	      0.00000000	     70.42382126	     -4.35714992	    -17.47195023	     30.26801361	      0.00000000	     -8.88944529	      0.52827650	     -1.88945193	      0.00000000	      0.00000000
      8.48000000	      4.07443657	    -41.14623159	      8.17782496	     -0.09554994	      0.87073283	     -1.19404474	     75.46011613	    -15.26805457	    -11.86527360	     38.77233016	      0.00000000	      9.32616399	      0.67670482	      2.09830455	      0.00000000	      0.00000000	     69.73372957	     -4.50552454	    -18.06924795	     29.93570166	      0.00000000	     -8.93917314	      0.52247656	     -1.92468342	      0.00000000	      0.00000000
      8.48500000	      4.14866194	    -41.58998045	      7.93789882	     -0.09556038	      0.87102398	     -1.19395134	     75.73007698	    -15.17786101	    -12.22164560	     38.62089769	      0.00000000	      9.32465389	      0.67406182	      2.04636997	      0.00000000	      0.00000000	     70.27022536	     -4.61284523	    -17.68238927	     30.03521787	      0.00000000	     -8.84530283	      0.52421344	     -1.89615323	      0.00000000	      0.00000000
      8.49000000	      4.01574119	    -41.42622567	      8.40748906	     -0.09496143	      0.87150258	     -1.19441570	     75.67826103	    -15.29642720	    -11.68014360	     38.59301998	      0.00000000	      9.32359690	      0.67357527	      2.03367536	      0.00000000	      0.00000000	     69.76051315	     -4.40026197	    -18.27462253	     29.66255624	      0.00000000	     -8.82932439	      0.51770927	     -1.96755395	      0.00000000	      0.00000000
